<mxfile host="app.diagrams.net" agent="Mozilla/5.0 (Windows NT 10.0; Win64; x64) AppleWebKit/537.36 (KHTML, like Gecko) Chrome/131.0.0.0 Safari/537.36" version="24.8.9">
  <diagram name="Page-1" id="E0RuofBjUgFYFWIZVjdZ">
    <mxGraphModel dx="4175" dy="2661" grid="1" gridSize="10" guides="1" tooltips="1" connect="1" arrows="1" fold="1" page="1" pageScale="1" pageWidth="827" pageHeight="1169" math="0" shadow="0">
      <root>
        <mxCell id="0" />
        <mxCell id="1" parent="0" />
        <mxCell id="P5fpa1jWJLYlnw7WoGTD-1" value="Dolgozo" style="whiteSpace=wrap;html=1;align=center;" vertex="1" parent="1">
          <mxGeometry x="274" y="190" width="100" height="40" as="geometry" />
        </mxCell>
        <mxCell id="P5fpa1jWJLYlnw7WoGTD-2" value="Beszámoló" style="whiteSpace=wrap;html=1;align=center;" vertex="1" parent="1">
          <mxGeometry x="720" y="170" width="100" height="40" as="geometry" />
        </mxCell>
        <mxCell id="P5fpa1jWJLYlnw7WoGTD-3" value="fizetés" style="ellipse;whiteSpace=wrap;html=1;align=center;" vertex="1" parent="1">
          <mxGeometry x="160" y="470" width="100" height="40" as="geometry" />
        </mxCell>
        <mxCell id="P5fpa1jWJLYlnw7WoGTD-4" value="Céges id" style="ellipse;whiteSpace=wrap;html=1;align=center;fontStyle=4;" vertex="1" parent="1">
          <mxGeometry x="290" y="470" width="100" height="40" as="geometry" />
        </mxCell>
        <mxCell id="P5fpa1jWJLYlnw7WoGTD-5" value="" style="line;strokeWidth=1;rotatable=0;dashed=0;labelPosition=right;align=left;verticalAlign=middle;spacingTop=0;spacingLeft=6;points=[];portConstraint=eastwest;" vertex="1" parent="1">
          <mxGeometry x="360" y="200" height="10" as="geometry" />
        </mxCell>
        <mxCell id="P5fpa1jWJLYlnw7WoGTD-6" value="Ré&lt;span style=&quot;background-color: initial;&quot;&gt;szleg&lt;/span&gt;" style="whiteSpace=wrap;html=1;align=center;" vertex="1" parent="1">
          <mxGeometry x="20" y="-120" width="100" height="40" as="geometry" />
        </mxCell>
        <mxCell id="P5fpa1jWJLYlnw7WoGTD-7" value="Projekt" style="whiteSpace=wrap;html=1;align=center;" vertex="1" parent="1">
          <mxGeometry x="470" y="-80" width="100" height="40" as="geometry" />
        </mxCell>
        <mxCell id="P5fpa1jWJLYlnw7WoGTD-8" value="Név" style="ellipse;whiteSpace=wrap;html=1;align=center;" vertex="1" parent="1">
          <mxGeometry x="30" y="360" width="100" height="40" as="geometry" />
        </mxCell>
        <mxCell id="P5fpa1jWJLYlnw7WoGTD-9" value="" style="line;strokeWidth=1;rotatable=0;dashed=0;labelPosition=right;align=left;verticalAlign=middle;spacingTop=0;spacingLeft=6;points=[];portConstraint=eastwest;" vertex="1" parent="1">
          <mxGeometry x="290" y="140" height="10" as="geometry" />
        </mxCell>
        <mxCell id="P5fpa1jWJLYlnw7WoGTD-10" value="Osztály" style="whiteSpace=wrap;html=1;align=center;" vertex="1" parent="1">
          <mxGeometry x="-360" y="-50" width="100" height="40" as="geometry" />
        </mxCell>
        <mxCell id="P5fpa1jWJLYlnw7WoGTD-11" value="Jelszó" style="ellipse;whiteSpace=wrap;html=1;align=center;" vertex="1" parent="1">
          <mxGeometry x="-10" y="280" width="90" height="40" as="geometry" />
        </mxCell>
        <mxCell id="P5fpa1jWJLYlnw7WoGTD-12" value="Beosztás" style="ellipse;whiteSpace=wrap;html=1;align=center;" vertex="1" parent="1">
          <mxGeometry x="420" y="150" width="100" height="40" as="geometry" />
        </mxCell>
        <mxCell id="P5fpa1jWJLYlnw7WoGTD-13" value="Feladata" style="ellipse;whiteSpace=wrap;html=1;align=center;" vertex="1" parent="1">
          <mxGeometry x="-540" y="30" width="100" height="40" as="geometry" />
        </mxCell>
        <mxCell id="P5fpa1jWJLYlnw7WoGTD-14" value="Részlegvezetője" style="ellipse;whiteSpace=wrap;html=1;align=center;" vertex="1" parent="1">
          <mxGeometry x="100" y="-30" width="100" height="40" as="geometry" />
        </mxCell>
        <mxCell id="P5fpa1jWJLYlnw7WoGTD-15" value="Határidő" style="ellipse;whiteSpace=wrap;html=1;align=center;" vertex="1" parent="1">
          <mxGeometry x="720" y="-200" width="100" height="40" as="geometry" />
        </mxCell>
        <mxCell id="P5fpa1jWJLYlnw7WoGTD-16" value="Név" style="ellipse;whiteSpace=wrap;html=1;align=center;" vertex="1" parent="1">
          <mxGeometry x="570" y="-220" width="100" height="40" as="geometry" />
        </mxCell>
        <mxCell id="P5fpa1jWJLYlnw7WoGTD-17" value="Projektvezetője" style="ellipse;whiteSpace=wrap;html=1;align=center;" vertex="1" parent="1">
          <mxGeometry x="680" y="-90" width="100" height="40" as="geometry" />
        </mxCell>
        <mxCell id="P5fpa1jWJLYlnw7WoGTD-18" value="Vezetéknév" style="ellipse;whiteSpace=wrap;html=1;align=center;" vertex="1" parent="1">
          <mxGeometry x="-170" y="440" width="100" height="40" as="geometry" />
        </mxCell>
        <mxCell id="P5fpa1jWJLYlnw7WoGTD-19" value="Keresztnév" style="ellipse;whiteSpace=wrap;html=1;align=center;" vertex="1" parent="1">
          <mxGeometry x="-70" y="480" width="100" height="40" as="geometry" />
        </mxCell>
        <mxCell id="P5fpa1jWJLYlnw7WoGTD-20" value="" style="endArrow=none;html=1;rounded=0;exitX=1;exitY=0.5;exitDx=0;exitDy=0;entryX=0;entryY=1;entryDx=0;entryDy=0;" edge="1" parent="1" source="P5fpa1jWJLYlnw7WoGTD-13" target="P5fpa1jWJLYlnw7WoGTD-10">
          <mxGeometry relative="1" as="geometry">
            <mxPoint x="-510" y="120" as="sourcePoint" />
            <mxPoint x="-350" y="120" as="targetPoint" />
          </mxGeometry>
        </mxCell>
        <mxCell id="P5fpa1jWJLYlnw7WoGTD-21" value="Nev" style="ellipse;whiteSpace=wrap;html=1;align=center;" vertex="1" parent="1">
          <mxGeometry x="-540" y="-110" width="100" height="40" as="geometry" />
        </mxCell>
        <mxCell id="P5fpa1jWJLYlnw7WoGTD-22" value="" style="endArrow=none;html=1;rounded=0;exitX=1;exitY=0.5;exitDx=0;exitDy=0;entryX=0;entryY=0.25;entryDx=0;entryDy=0;" edge="1" parent="1" source="P5fpa1jWJLYlnw7WoGTD-21" target="P5fpa1jWJLYlnw7WoGTD-10">
          <mxGeometry relative="1" as="geometry">
            <mxPoint x="-450" y="100" as="sourcePoint" />
            <mxPoint x="-290" y="100" as="targetPoint" />
          </mxGeometry>
        </mxCell>
        <mxCell id="P5fpa1jWJLYlnw7WoGTD-23" value="&lt;u&gt;osztaly_id&lt;/u&gt;" style="ellipse;whiteSpace=wrap;html=1;align=center;" vertex="1" parent="1">
          <mxGeometry x="-460" y="-190" width="100" height="40" as="geometry" />
        </mxCell>
        <mxCell id="P5fpa1jWJLYlnw7WoGTD-24" value="" style="endArrow=none;html=1;rounded=0;exitX=0.5;exitY=1;exitDx=0;exitDy=0;entryX=0.25;entryY=0;entryDx=0;entryDy=0;" edge="1" parent="1" source="P5fpa1jWJLYlnw7WoGTD-23" target="P5fpa1jWJLYlnw7WoGTD-10">
          <mxGeometry relative="1" as="geometry">
            <mxPoint x="-450" y="100" as="sourcePoint" />
            <mxPoint x="-290" y="100" as="targetPoint" />
          </mxGeometry>
        </mxCell>
        <mxCell id="P5fpa1jWJLYlnw7WoGTD-25" value="" style="endArrow=none;html=1;rounded=0;exitX=0.5;exitY=1;exitDx=0;exitDy=0;entryX=0.75;entryY=0;entryDx=0;entryDy=0;" edge="1" parent="1" source="P5fpa1jWJLYlnw7WoGTD-92" target="P5fpa1jWJLYlnw7WoGTD-10">
          <mxGeometry relative="1" as="geometry">
            <mxPoint x="-220" y="-160" as="sourcePoint" />
            <mxPoint x="-70" y="-90" as="targetPoint" />
          </mxGeometry>
        </mxCell>
        <mxCell id="P5fpa1jWJLYlnw7WoGTD-26" value="tartalmazza" style="shape=rhombus;perimeter=rhombusPerimeter;whiteSpace=wrap;html=1;align=center;" vertex="1" parent="1">
          <mxGeometry x="-190" y="-60" width="120" height="60" as="geometry" />
        </mxCell>
        <mxCell id="P5fpa1jWJLYlnw7WoGTD-27" value="" style="endArrow=none;html=1;rounded=0;exitX=1;exitY=0.5;exitDx=0;exitDy=0;entryX=0;entryY=0.5;entryDx=0;entryDy=0;" edge="1" parent="1" source="P5fpa1jWJLYlnw7WoGTD-10" target="P5fpa1jWJLYlnw7WoGTD-26">
          <mxGeometry relative="1" as="geometry">
            <mxPoint x="-260" y="110" as="sourcePoint" />
            <mxPoint x="-100" y="110" as="targetPoint" />
          </mxGeometry>
        </mxCell>
        <mxCell id="P5fpa1jWJLYlnw7WoGTD-28" value="" style="endArrow=none;html=1;rounded=0;exitX=1;exitY=0.5;exitDx=0;exitDy=0;entryX=0;entryY=0.5;entryDx=0;entryDy=0;" edge="1" parent="1" source="P5fpa1jWJLYlnw7WoGTD-26" target="P5fpa1jWJLYlnw7WoGTD-6">
          <mxGeometry relative="1" as="geometry">
            <mxPoint x="-190" y="40" as="sourcePoint" />
            <mxPoint x="-30" y="40" as="targetPoint" />
          </mxGeometry>
        </mxCell>
        <mxCell id="P5fpa1jWJLYlnw7WoGTD-29" value="osztaly_id" style="ellipse;whiteSpace=wrap;html=1;align=center;" vertex="1" parent="1">
          <mxGeometry x="-90" y="-190" width="100" height="40" as="geometry" />
        </mxCell>
        <mxCell id="P5fpa1jWJLYlnw7WoGTD-30" value="reszleg_id" style="ellipse;whiteSpace=wrap;html=1;align=center;fontStyle=4;" vertex="1" parent="1">
          <mxGeometry x="30" y="-250" width="100" height="40" as="geometry" />
        </mxCell>
        <mxCell id="P5fpa1jWJLYlnw7WoGTD-31" value="feladata" style="ellipse;whiteSpace=wrap;html=1;align=center;" vertex="1" parent="1">
          <mxGeometry x="120" y="-190" width="100" height="40" as="geometry" />
        </mxCell>
        <mxCell id="P5fpa1jWJLYlnw7WoGTD-32" value="tartalmazza" style="shape=rhombus;perimeter=rhombusPerimeter;whiteSpace=wrap;html=1;align=center;" vertex="1" parent="1">
          <mxGeometry x="230" y="-130" width="120" height="60" as="geometry" />
        </mxCell>
        <mxCell id="P5fpa1jWJLYlnw7WoGTD-33" value="Név" style="ellipse;whiteSpace=wrap;html=1;align=center;" vertex="1" parent="1">
          <mxGeometry x="-40" y="-40" width="100" height="40" as="geometry" />
        </mxCell>
        <mxCell id="P5fpa1jWJLYlnw7WoGTD-34" value="" style="endArrow=none;html=1;rounded=0;exitX=0.5;exitY=0;exitDx=0;exitDy=0;entryX=0;entryY=1;entryDx=0;entryDy=0;" edge="1" parent="1" source="P5fpa1jWJLYlnw7WoGTD-33" target="P5fpa1jWJLYlnw7WoGTD-6">
          <mxGeometry relative="1" as="geometry">
            <mxPoint x="50" y="30" as="sourcePoint" />
            <mxPoint x="210" y="30" as="targetPoint" />
          </mxGeometry>
        </mxCell>
        <mxCell id="P5fpa1jWJLYlnw7WoGTD-35" value="" style="endArrow=none;html=1;rounded=0;exitX=0.75;exitY=1;exitDx=0;exitDy=0;entryX=0.5;entryY=0;entryDx=0;entryDy=0;" edge="1" parent="1" source="P5fpa1jWJLYlnw7WoGTD-6" target="P5fpa1jWJLYlnw7WoGTD-14">
          <mxGeometry relative="1" as="geometry">
            <mxPoint x="-170" y="50" as="sourcePoint" />
            <mxPoint x="-10" y="50" as="targetPoint" />
          </mxGeometry>
        </mxCell>
        <mxCell id="P5fpa1jWJLYlnw7WoGTD-36" value="" style="endArrow=none;html=1;rounded=0;exitX=0.5;exitY=1;exitDx=0;exitDy=0;entryX=0.25;entryY=0;entryDx=0;entryDy=0;" edge="1" parent="1" source="P5fpa1jWJLYlnw7WoGTD-29" target="P5fpa1jWJLYlnw7WoGTD-6">
          <mxGeometry relative="1" as="geometry">
            <mxPoint x="-100" y="-100" as="sourcePoint" />
            <mxPoint x="60" y="-100" as="targetPoint" />
          </mxGeometry>
        </mxCell>
        <mxCell id="P5fpa1jWJLYlnw7WoGTD-37" value="" style="endArrow=none;html=1;rounded=0;exitX=0.5;exitY=1;exitDx=0;exitDy=0;entryX=0.5;entryY=0;entryDx=0;entryDy=0;" edge="1" parent="1" source="P5fpa1jWJLYlnw7WoGTD-30" target="P5fpa1jWJLYlnw7WoGTD-6">
          <mxGeometry relative="1" as="geometry">
            <mxPoint x="-40" y="-130" as="sourcePoint" />
            <mxPoint x="120" y="-130" as="targetPoint" />
          </mxGeometry>
        </mxCell>
        <mxCell id="P5fpa1jWJLYlnw7WoGTD-38" value="" style="endArrow=none;html=1;rounded=0;exitX=1;exitY=0;exitDx=0;exitDy=0;entryX=0.5;entryY=1;entryDx=0;entryDy=0;" edge="1" parent="1" source="P5fpa1jWJLYlnw7WoGTD-6" target="P5fpa1jWJLYlnw7WoGTD-31">
          <mxGeometry relative="1" as="geometry">
            <mxPoint x="140" y="-130" as="sourcePoint" />
            <mxPoint x="300" y="-130" as="targetPoint" />
          </mxGeometry>
        </mxCell>
        <mxCell id="P5fpa1jWJLYlnw7WoGTD-39" value="" style="endArrow=none;html=1;rounded=0;exitX=1;exitY=0.5;exitDx=0;exitDy=0;entryX=0;entryY=0.5;entryDx=0;entryDy=0;" edge="1" parent="1" source="P5fpa1jWJLYlnw7WoGTD-6" target="P5fpa1jWJLYlnw7WoGTD-32">
          <mxGeometry relative="1" as="geometry">
            <mxPoint x="170" y="-60" as="sourcePoint" />
            <mxPoint x="330" y="-60" as="targetPoint" />
          </mxGeometry>
        </mxCell>
        <mxCell id="P5fpa1jWJLYlnw7WoGTD-40" value="" style="endArrow=none;html=1;rounded=0;exitX=1;exitY=0.5;exitDx=0;exitDy=0;entryX=0;entryY=0;entryDx=0;entryDy=0;" edge="1" parent="1" source="P5fpa1jWJLYlnw7WoGTD-32" target="P5fpa1jWJLYlnw7WoGTD-7">
          <mxGeometry relative="1" as="geometry">
            <mxPoint x="380" y="-110" as="sourcePoint" />
            <mxPoint x="530" y="-100" as="targetPoint" />
          </mxGeometry>
        </mxCell>
        <mxCell id="P5fpa1jWJLYlnw7WoGTD-41" value="" style="endArrow=none;html=1;rounded=0;exitX=1;exitY=0.5;exitDx=0;exitDy=0;entryX=0;entryY=0.5;entryDx=0;entryDy=0;" edge="1" parent="1" source="P5fpa1jWJLYlnw7WoGTD-7" target="P5fpa1jWJLYlnw7WoGTD-17">
          <mxGeometry relative="1" as="geometry">
            <mxPoint x="730" y="-90" as="sourcePoint" />
            <mxPoint x="890" y="-90" as="targetPoint" />
          </mxGeometry>
        </mxCell>
        <mxCell id="P5fpa1jWJLYlnw7WoGTD-42" value="" style="endArrow=none;html=1;rounded=0;exitX=1;exitY=0;exitDx=0;exitDy=0;entryX=0.5;entryY=1;entryDx=0;entryDy=0;" edge="1" parent="1" source="P5fpa1jWJLYlnw7WoGTD-7" target="P5fpa1jWJLYlnw7WoGTD-15">
          <mxGeometry relative="1" as="geometry">
            <mxPoint x="690" y="-180" as="sourcePoint" />
            <mxPoint x="850" y="-180" as="targetPoint" />
          </mxGeometry>
        </mxCell>
        <mxCell id="P5fpa1jWJLYlnw7WoGTD-43" value="projekt_id" style="ellipse;whiteSpace=wrap;html=1;align=center;fontStyle=4;" vertex="1" parent="1">
          <mxGeometry x="425" y="-220" width="100" height="40" as="geometry" />
        </mxCell>
        <mxCell id="P5fpa1jWJLYlnw7WoGTD-44" value="" style="endArrow=none;html=1;rounded=0;exitX=0.5;exitY=1;exitDx=0;exitDy=0;entryX=0.25;entryY=0;entryDx=0;entryDy=0;" edge="1" parent="1" source="P5fpa1jWJLYlnw7WoGTD-43" target="P5fpa1jWJLYlnw7WoGTD-7">
          <mxGeometry relative="1" as="geometry">
            <mxPoint x="620" y="-280" as="sourcePoint" />
            <mxPoint x="780" y="-280" as="targetPoint" />
          </mxGeometry>
        </mxCell>
        <mxCell id="P5fpa1jWJLYlnw7WoGTD-45" value="" style="endArrow=none;html=1;rounded=0;exitX=0.5;exitY=0;exitDx=0;exitDy=0;entryX=0.5;entryY=1;entryDx=0;entryDy=0;" edge="1" parent="1" source="P5fpa1jWJLYlnw7WoGTD-7" target="P5fpa1jWJLYlnw7WoGTD-16">
          <mxGeometry relative="1" as="geometry">
            <mxPoint x="660" y="-220" as="sourcePoint" />
            <mxPoint x="820" y="-220" as="targetPoint" />
          </mxGeometry>
        </mxCell>
        <mxCell id="P5fpa1jWJLYlnw7WoGTD-46" value="hozzátartozik" style="shape=rhombus;perimeter=rhombusPerimeter;whiteSpace=wrap;html=1;align=center;" vertex="1" parent="1">
          <mxGeometry x="680" y="50" width="120" height="60" as="geometry" />
        </mxCell>
        <mxCell id="P5fpa1jWJLYlnw7WoGTD-47" value="" style="endArrow=none;html=1;rounded=0;exitX=0.5;exitY=1;exitDx=0;exitDy=0;entryX=0.25;entryY=0;entryDx=0;entryDy=0;" edge="1" parent="1" source="P5fpa1jWJLYlnw7WoGTD-46" target="P5fpa1jWJLYlnw7WoGTD-2">
          <mxGeometry relative="1" as="geometry">
            <mxPoint x="720" y="250" as="sourcePoint" />
            <mxPoint x="880" y="250" as="targetPoint" />
          </mxGeometry>
        </mxCell>
        <mxCell id="P5fpa1jWJLYlnw7WoGTD-48" value="Beszámoló id" style="ellipse;whiteSpace=wrap;html=1;align=center;fontStyle=4;" vertex="1" parent="1">
          <mxGeometry x="830" y="270" width="140" height="40" as="geometry" />
        </mxCell>
        <mxCell id="P5fpa1jWJLYlnw7WoGTD-49" value="" style="endArrow=none;html=1;rounded=0;exitX=0.66;exitY=1;exitDx=0;exitDy=0;exitPerimeter=0;entryX=0;entryY=0;entryDx=0;entryDy=0;" edge="1" parent="1" source="P5fpa1jWJLYlnw7WoGTD-2" target="P5fpa1jWJLYlnw7WoGTD-48">
          <mxGeometry relative="1" as="geometry">
            <mxPoint x="850" y="360" as="sourcePoint" />
            <mxPoint x="1010" y="360" as="targetPoint" />
          </mxGeometry>
        </mxCell>
        <mxCell id="P5fpa1jWJLYlnw7WoGTD-50" value="Céges id" style="ellipse;whiteSpace=wrap;html=1;align=center;" vertex="1" parent="1">
          <mxGeometry x="910" y="160" width="100" height="40" as="geometry" />
        </mxCell>
        <mxCell id="P5fpa1jWJLYlnw7WoGTD-51" value="" style="endArrow=none;html=1;rounded=0;exitX=0.25;exitY=1;exitDx=0;exitDy=0;entryX=0.5;entryY=0;entryDx=0;entryDy=0;" edge="1" parent="1" source="P5fpa1jWJLYlnw7WoGTD-2" target="P5fpa1jWJLYlnw7WoGTD-52">
          <mxGeometry relative="1" as="geometry">
            <mxPoint x="860" y="370" as="sourcePoint" />
            <mxPoint x="1020" y="370" as="targetPoint" />
          </mxGeometry>
        </mxCell>
        <mxCell id="P5fpa1jWJLYlnw7WoGTD-52" value="Beszámoló" style="ellipse;whiteSpace=wrap;html=1;align=center;" vertex="1" parent="1">
          <mxGeometry x="620" y="270" width="100" height="40" as="geometry" />
        </mxCell>
        <mxCell id="P5fpa1jWJLYlnw7WoGTD-53" value="Projekt_id" style="ellipse;whiteSpace=wrap;html=1;align=center;" vertex="1" parent="1">
          <mxGeometry x="730" y="310" width="100" height="40" as="geometry" />
        </mxCell>
        <mxCell id="P5fpa1jWJLYlnw7WoGTD-54" value="ír" style="shape=rhombus;perimeter=rhombusPerimeter;whiteSpace=wrap;html=1;align=center;" vertex="1" parent="1">
          <mxGeometry x="525" y="170" width="120" height="60" as="geometry" />
        </mxCell>
        <mxCell id="P5fpa1jWJLYlnw7WoGTD-55" value="Dolgozik rajta" style="shape=rhombus;perimeter=rhombusPerimeter;whiteSpace=wrap;html=1;align=center;" vertex="1" parent="1">
          <mxGeometry x="330" y="10" width="120" height="60" as="geometry" />
        </mxCell>
        <mxCell id="P5fpa1jWJLYlnw7WoGTD-56" value="" style="endArrow=none;html=1;rounded=0;exitX=0;exitY=1;exitDx=0;exitDy=0;entryX=0.5;entryY=0;entryDx=0;entryDy=0;" edge="1" parent="1" source="P5fpa1jWJLYlnw7WoGTD-55" target="P5fpa1jWJLYlnw7WoGTD-1">
          <mxGeometry relative="1" as="geometry">
            <mxPoint x="350" y="120" as="sourcePoint" />
            <mxPoint x="510" y="120" as="targetPoint" />
            <Array as="points">
              <mxPoint x="390" y="70" />
            </Array>
          </mxGeometry>
        </mxCell>
        <mxCell id="P5fpa1jWJLYlnw7WoGTD-57" value="" style="endArrow=none;html=1;rounded=0;entryX=0;entryY=0.75;entryDx=0;entryDy=0;exitX=1;exitY=0.5;exitDx=0;exitDy=0;" edge="1" parent="1" source="P5fpa1jWJLYlnw7WoGTD-11" target="P5fpa1jWJLYlnw7WoGTD-1">
          <mxGeometry relative="1" as="geometry">
            <mxPoint x="90" y="300" as="sourcePoint" />
            <mxPoint x="320" y="240" as="targetPoint" />
            <Array as="points" />
          </mxGeometry>
        </mxCell>
        <mxCell id="P5fpa1jWJLYlnw7WoGTD-58" value="" style="endArrow=none;html=1;rounded=0;exitX=1;exitY=0.5;exitDx=0;exitDy=0;entryX=0;entryY=0.75;entryDx=0;entryDy=0;" edge="1" parent="1" source="P5fpa1jWJLYlnw7WoGTD-8" target="P5fpa1jWJLYlnw7WoGTD-1">
          <mxGeometry relative="1" as="geometry">
            <mxPoint x="150" y="220" as="sourcePoint" />
            <mxPoint x="310" y="220" as="targetPoint" />
          </mxGeometry>
        </mxCell>
        <mxCell id="P5fpa1jWJLYlnw7WoGTD-59" value="" style="endArrow=none;html=1;rounded=0;exitX=0.5;exitY=1;exitDx=0;exitDy=0;entryX=0.5;entryY=0;entryDx=0;entryDy=0;" edge="1" parent="1" source="P5fpa1jWJLYlnw7WoGTD-2" target="P5fpa1jWJLYlnw7WoGTD-53">
          <mxGeometry relative="1" as="geometry">
            <mxPoint x="770" y="250" as="sourcePoint" />
            <mxPoint x="930" y="250" as="targetPoint" />
          </mxGeometry>
        </mxCell>
        <mxCell id="P5fpa1jWJLYlnw7WoGTD-60" value="" style="endArrow=none;html=1;rounded=0;exitX=0;exitY=0.5;exitDx=0;exitDy=0;entryX=0.5;entryY=0;entryDx=0;entryDy=0;" edge="1" parent="1" source="P5fpa1jWJLYlnw7WoGTD-8" target="P5fpa1jWJLYlnw7WoGTD-18">
          <mxGeometry relative="1" as="geometry">
            <mxPoint x="60" y="480" as="sourcePoint" />
            <mxPoint x="220" y="480" as="targetPoint" />
          </mxGeometry>
        </mxCell>
        <mxCell id="P5fpa1jWJLYlnw7WoGTD-61" value="" style="endArrow=none;html=1;rounded=0;exitX=0.5;exitY=0;exitDx=0;exitDy=0;entryX=0.5;entryY=1;entryDx=0;entryDy=0;" edge="1" parent="1" source="P5fpa1jWJLYlnw7WoGTD-19" target="P5fpa1jWJLYlnw7WoGTD-8">
          <mxGeometry relative="1" as="geometry">
            <mxPoint y="520" as="sourcePoint" />
            <mxPoint x="160" y="520" as="targetPoint" />
          </mxGeometry>
        </mxCell>
        <mxCell id="P5fpa1jWJLYlnw7WoGTD-62" value="felhasznalonev" style="ellipse;whiteSpace=wrap;html=1;align=center;" vertex="1" parent="1">
          <mxGeometry x="110" y="420" width="100" height="40" as="geometry" />
        </mxCell>
        <mxCell id="P5fpa1jWJLYlnw7WoGTD-63" value="telefonszám" style="ellipse;whiteSpace=wrap;html=1;align=center;" vertex="1" parent="1">
          <mxGeometry x="480" y="270" width="100" height="40" as="geometry" />
        </mxCell>
        <mxCell id="P5fpa1jWJLYlnw7WoGTD-64" value="vezetett részleg" style="ellipse;whiteSpace=wrap;html=1;align=center;" vertex="1" parent="1">
          <mxGeometry x="440" y="410" width="120" height="50" as="geometry" />
        </mxCell>
        <mxCell id="P5fpa1jWJLYlnw7WoGTD-65" value="&lt;div style=&quot;text-align: center;&quot;&gt;&lt;span style=&quot;text-align: start; background-color: initial;&quot;&gt;részleg&lt;/span&gt;&lt;span style=&quot;color: rgba(0, 0, 0, 0); font-family: monospace; font-size: 0px; text-align: start; text-wrap-mode: nowrap; background-color: initial;&quot;&gt;%3CmxGraphModel%3E%3Croot%3E%3CmxCell%20id%3D%220%22%2F%3E%3CmxCell%20id%3D%221%22%20parent%3D%220%22%2F%3E%3CmxCell%20id%3D%222%22%20value%3D%22C%C3%A9ges%20azonosit%C3%B3%22%20style%3D%22ellipse%3BwhiteSpace%3Dwrap%3Bhtml%3D1%3Balign%3Dcenter%3BfontStyle%3D4%3B%22%20vertex%3D%221%22%20parent%3D%221%22%3E%3CmxGeometry%20x%3D%22290%22%20y%3D%22480%22%20width%3D%22100%22%20height%3D%2240%22%20as%3D%22geometry%22%2F%3E%3C%2FmxCell%3E%3C%2Froot%3E%3C%2FmxGraphMod&lt;/span&gt;&lt;/div&gt;" style="ellipse;whiteSpace=wrap;html=1;align=center;" vertex="1" parent="1">
          <mxGeometry x="400" y="470" width="100" height="40" as="geometry" />
        </mxCell>
        <mxCell id="P5fpa1jWJLYlnw7WoGTD-66" value="jogosultság" style="ellipse;whiteSpace=wrap;html=1;align=center;" vertex="1" parent="1">
          <mxGeometry x="220" y="520" width="100" height="40" as="geometry" />
        </mxCell>
        <mxCell id="P5fpa1jWJLYlnw7WoGTD-67" value="" style="endArrow=none;html=1;rounded=0;exitX=1;exitY=0.5;exitDx=0;exitDy=0;entryX=0;entryY=0.5;entryDx=0;entryDy=0;" edge="1" parent="1" source="P5fpa1jWJLYlnw7WoGTD-1" target="P5fpa1jWJLYlnw7WoGTD-12">
          <mxGeometry relative="1" as="geometry">
            <mxPoint x="260" y="350" as="sourcePoint" />
            <mxPoint x="420" y="350" as="targetPoint" />
          </mxGeometry>
        </mxCell>
        <mxCell id="P5fpa1jWJLYlnw7WoGTD-68" value="" style="endArrow=none;html=1;rounded=0;exitX=1;exitY=1;exitDx=0;exitDy=0;entryX=0;entryY=0.5;entryDx=0;entryDy=0;" edge="1" parent="1" source="P5fpa1jWJLYlnw7WoGTD-1" target="P5fpa1jWJLYlnw7WoGTD-89">
          <mxGeometry relative="1" as="geometry">
            <mxPoint x="270" y="360" as="sourcePoint" />
            <mxPoint x="425" y="250" as="targetPoint" />
          </mxGeometry>
        </mxCell>
        <mxCell id="P5fpa1jWJLYlnw7WoGTD-69" value="" style="endArrow=none;html=1;rounded=0;exitX=0.75;exitY=1;exitDx=0;exitDy=0;entryX=0;entryY=0.5;entryDx=0;entryDy=0;" edge="1" parent="1" source="P5fpa1jWJLYlnw7WoGTD-1" target="P5fpa1jWJLYlnw7WoGTD-63">
          <mxGeometry relative="1" as="geometry">
            <mxPoint x="280" y="370" as="sourcePoint" />
            <mxPoint x="440" y="370" as="targetPoint" />
          </mxGeometry>
        </mxCell>
        <mxCell id="P5fpa1jWJLYlnw7WoGTD-70" value="" style="endArrow=none;html=1;rounded=0;exitX=0.25;exitY=1;exitDx=0;exitDy=0;entryX=0.5;entryY=0;entryDx=0;entryDy=0;" edge="1" parent="1" source="P5fpa1jWJLYlnw7WoGTD-1" target="P5fpa1jWJLYlnw7WoGTD-62">
          <mxGeometry relative="1" as="geometry">
            <mxPoint x="290" y="380" as="sourcePoint" />
            <mxPoint x="450" y="380" as="targetPoint" />
          </mxGeometry>
        </mxCell>
        <mxCell id="P5fpa1jWJLYlnw7WoGTD-71" value="" style="endArrow=none;html=1;rounded=0;exitX=0.5;exitY=1;exitDx=0;exitDy=0;entryX=0.5;entryY=0;entryDx=0;entryDy=0;" edge="1" parent="1" source="P5fpa1jWJLYlnw7WoGTD-1" target="P5fpa1jWJLYlnw7WoGTD-3">
          <mxGeometry relative="1" as="geometry">
            <mxPoint x="300" y="390" as="sourcePoint" />
            <mxPoint x="460" y="390" as="targetPoint" />
          </mxGeometry>
        </mxCell>
        <mxCell id="P5fpa1jWJLYlnw7WoGTD-72" value="" style="endArrow=none;html=1;rounded=0;exitX=0.5;exitY=1;exitDx=0;exitDy=0;entryX=0.5;entryY=0;entryDx=0;entryDy=0;" edge="1" parent="1" source="P5fpa1jWJLYlnw7WoGTD-1" target="P5fpa1jWJLYlnw7WoGTD-66">
          <mxGeometry relative="1" as="geometry">
            <mxPoint x="310" y="400" as="sourcePoint" />
            <mxPoint x="470" y="400" as="targetPoint" />
          </mxGeometry>
        </mxCell>
        <mxCell id="P5fpa1jWJLYlnw7WoGTD-73" value="" style="endArrow=none;html=1;rounded=0;exitX=0.75;exitY=1;exitDx=0;exitDy=0;entryX=0.5;entryY=0;entryDx=0;entryDy=0;" edge="1" parent="1" source="P5fpa1jWJLYlnw7WoGTD-1" target="P5fpa1jWJLYlnw7WoGTD-4">
          <mxGeometry relative="1" as="geometry">
            <mxPoint x="320" y="419" as="sourcePoint" />
            <mxPoint x="480" y="419" as="targetPoint" />
          </mxGeometry>
        </mxCell>
        <mxCell id="P5fpa1jWJLYlnw7WoGTD-74" value="" style="endArrow=none;html=1;rounded=0;exitX=0.75;exitY=1;exitDx=0;exitDy=0;entryX=0;entryY=0;entryDx=0;entryDy=0;" edge="1" parent="1" source="P5fpa1jWJLYlnw7WoGTD-1" target="P5fpa1jWJLYlnw7WoGTD-65">
          <mxGeometry relative="1" as="geometry">
            <mxPoint x="330" y="420" as="sourcePoint" />
            <mxPoint x="490" y="420" as="targetPoint" />
          </mxGeometry>
        </mxCell>
        <mxCell id="P5fpa1jWJLYlnw7WoGTD-75" value="" style="endArrow=none;html=1;rounded=0;exitX=0.75;exitY=1;exitDx=0;exitDy=0;entryX=0;entryY=0;entryDx=0;entryDy=0;" edge="1" parent="1" source="P5fpa1jWJLYlnw7WoGTD-1" target="P5fpa1jWJLYlnw7WoGTD-64">
          <mxGeometry relative="1" as="geometry">
            <mxPoint x="340" y="430" as="sourcePoint" />
            <mxPoint x="500" y="430" as="targetPoint" />
          </mxGeometry>
        </mxCell>
        <mxCell id="P5fpa1jWJLYlnw7WoGTD-76" value="" style="endArrow=none;html=1;rounded=0;exitX=1;exitY=0.5;exitDx=0;exitDy=0;entryX=0;entryY=0.5;entryDx=0;entryDy=0;" edge="1" parent="1" source="P5fpa1jWJLYlnw7WoGTD-2" target="P5fpa1jWJLYlnw7WoGTD-50">
          <mxGeometry relative="1" as="geometry">
            <mxPoint x="970" y="250" as="sourcePoint" />
            <mxPoint x="1130" y="250" as="targetPoint" />
          </mxGeometry>
        </mxCell>
        <mxCell id="P5fpa1jWJLYlnw7WoGTD-77" value="" style="endArrow=none;html=1;rounded=0;exitX=1;exitY=0.5;exitDx=0;exitDy=0;entryX=0;entryY=0.5;entryDx=0;entryDy=0;" edge="1" parent="1" source="P5fpa1jWJLYlnw7WoGTD-1" target="P5fpa1jWJLYlnw7WoGTD-54">
          <mxGeometry relative="1" as="geometry">
            <mxPoint x="670" y="440" as="sourcePoint" />
            <mxPoint x="830" y="440" as="targetPoint" />
          </mxGeometry>
        </mxCell>
        <mxCell id="P5fpa1jWJLYlnw7WoGTD-78" value="Felhasznalo" style="whiteSpace=wrap;html=1;align=center;" vertex="1" parent="1">
          <mxGeometry x="-450" y="260" width="100" height="40" as="geometry" />
        </mxCell>
        <mxCell id="P5fpa1jWJLYlnw7WoGTD-79" value="felhasznalonev" style="ellipse;whiteSpace=wrap;html=1;align=center;fontStyle=4;" vertex="1" parent="1">
          <mxGeometry x="-640" y="230" width="100" height="40" as="geometry" />
        </mxCell>
        <mxCell id="P5fpa1jWJLYlnw7WoGTD-80" value="jelszo" style="ellipse;whiteSpace=wrap;html=1;align=center;" vertex="1" parent="1">
          <mxGeometry x="-550" y="150" width="100" height="40" as="geometry" />
        </mxCell>
        <mxCell id="P5fpa1jWJLYlnw7WoGTD-81" value="email-cím" style="ellipse;whiteSpace=wrap;html=1;align=center;" vertex="1" parent="1">
          <mxGeometry x="-620" y="360" width="100" height="40" as="geometry" />
        </mxCell>
        <mxCell id="P5fpa1jWJLYlnw7WoGTD-82" value="nev" style="ellipse;whiteSpace=wrap;html=1;align=center;" vertex="1" parent="1">
          <mxGeometry x="-425" y="380" width="100" height="40" as="geometry" />
        </mxCell>
        <mxCell id="P5fpa1jWJLYlnw7WoGTD-83" value="" style="endArrow=none;html=1;rounded=0;exitX=0.5;exitY=1;exitDx=0;exitDy=0;entryX=0;entryY=0;entryDx=0;entryDy=0;" edge="1" parent="1" source="P5fpa1jWJLYlnw7WoGTD-80" target="P5fpa1jWJLYlnw7WoGTD-78">
          <mxGeometry relative="1" as="geometry">
            <mxPoint x="-360" y="220" as="sourcePoint" />
            <mxPoint x="-200" y="220" as="targetPoint" />
          </mxGeometry>
        </mxCell>
        <mxCell id="P5fpa1jWJLYlnw7WoGTD-84" value="" style="endArrow=none;html=1;rounded=0;exitX=1;exitY=0.5;exitDx=0;exitDy=0;entryX=0;entryY=0.5;entryDx=0;entryDy=0;" edge="1" parent="1" source="P5fpa1jWJLYlnw7WoGTD-79" target="P5fpa1jWJLYlnw7WoGTD-78">
          <mxGeometry relative="1" as="geometry">
            <mxPoint x="-310" y="200" as="sourcePoint" />
            <mxPoint x="-150" y="200" as="targetPoint" />
          </mxGeometry>
        </mxCell>
        <mxCell id="P5fpa1jWJLYlnw7WoGTD-85" value="" style="endArrow=none;html=1;rounded=0;exitX=0.5;exitY=0;exitDx=0;exitDy=0;entryX=0.5;entryY=1;entryDx=0;entryDy=0;" edge="1" parent="1" source="P5fpa1jWJLYlnw7WoGTD-82" target="P5fpa1jWJLYlnw7WoGTD-78">
          <mxGeometry relative="1" as="geometry">
            <mxPoint x="-530" y="260" as="sourcePoint" />
            <mxPoint x="-440" y="290" as="targetPoint" />
          </mxGeometry>
        </mxCell>
        <mxCell id="P5fpa1jWJLYlnw7WoGTD-86" value="" style="endArrow=none;html=1;rounded=0;exitX=1;exitY=0.5;exitDx=0;exitDy=0;entryX=0;entryY=1;entryDx=0;entryDy=0;" edge="1" parent="1" source="P5fpa1jWJLYlnw7WoGTD-81" target="P5fpa1jWJLYlnw7WoGTD-78">
          <mxGeometry relative="1" as="geometry">
            <mxPoint x="-520" y="270" as="sourcePoint" />
            <mxPoint x="-430" y="300" as="targetPoint" />
          </mxGeometry>
        </mxCell>
        <mxCell id="P5fpa1jWJLYlnw7WoGTD-87" value="Van felhasznaloi fiokja" style="shape=rhombus;perimeter=rhombusPerimeter;whiteSpace=wrap;html=1;align=center;" vertex="1" parent="1">
          <mxGeometry x="-150" y="150" width="150" height="100" as="geometry" />
        </mxCell>
        <mxCell id="P5fpa1jWJLYlnw7WoGTD-88" value="" style="endArrow=none;html=1;rounded=0;exitX=1;exitY=0.5;exitDx=0;exitDy=0;entryX=0;entryY=0.5;entryDx=0;entryDy=0;" edge="1" parent="1" source="P5fpa1jWJLYlnw7WoGTD-87" target="P5fpa1jWJLYlnw7WoGTD-1">
          <mxGeometry relative="1" as="geometry">
            <mxPoint x="80" y="240" as="sourcePoint" />
            <mxPoint x="240" y="240" as="targetPoint" />
          </mxGeometry>
        </mxCell>
        <mxCell id="P5fpa1jWJLYlnw7WoGTD-89" value="email-cím" style="ellipse;whiteSpace=wrap;html=1;align=center;" vertex="1" parent="1">
          <mxGeometry x="425" y="230" width="100" height="40" as="geometry" />
        </mxCell>
        <mxCell id="P5fpa1jWJLYlnw7WoGTD-90" value="Projekthez hozzárendel" style="shape=rhombus;perimeter=rhombusPerimeter;whiteSpace=wrap;html=1;align=center;" vertex="1" parent="1">
          <mxGeometry x="50" y="40" width="170" height="90" as="geometry" />
        </mxCell>
        <mxCell id="P5fpa1jWJLYlnw7WoGTD-91" value="" style="endArrow=none;html=1;rounded=0;exitX=0.5;exitY=1;exitDx=0;exitDy=0;entryX=0;entryY=0;entryDx=0;entryDy=0;" edge="1" parent="1" source="P5fpa1jWJLYlnw7WoGTD-6" target="P5fpa1jWJLYlnw7WoGTD-90">
          <mxGeometry relative="1" as="geometry">
            <mxPoint x="-330" y="90" as="sourcePoint" />
            <mxPoint x="-170" y="90" as="targetPoint" />
            <Array as="points">
              <mxPoint x="95" y="60" />
            </Array>
          </mxGeometry>
        </mxCell>
        <mxCell id="P5fpa1jWJLYlnw7WoGTD-92" value="Osztályvezetője" style="ellipse;whiteSpace=wrap;html=1;align=center;" vertex="1" parent="1">
          <mxGeometry x="-260" y="-210" width="100" height="40" as="geometry" />
        </mxCell>
        <mxCell id="P5fpa1jWJLYlnw7WoGTD-93" value="vezetett osztály" style="ellipse;whiteSpace=wrap;html=1;align=center;" vertex="1" parent="1">
          <mxGeometry x="600" y="430" width="120" height="50" as="geometry" />
        </mxCell>
        <mxCell id="P5fpa1jWJLYlnw7WoGTD-94" value="" style="endArrow=none;html=1;rounded=0;exitX=0.75;exitY=1;exitDx=0;exitDy=0;entryX=0;entryY=0;entryDx=0;entryDy=0;" edge="1" parent="1" source="P5fpa1jWJLYlnw7WoGTD-1" target="P5fpa1jWJLYlnw7WoGTD-93">
          <mxGeometry relative="1" as="geometry">
            <mxPoint x="530" y="380" as="sourcePoint" />
            <mxPoint x="690" y="380" as="targetPoint" />
          </mxGeometry>
        </mxCell>
        <mxCell id="P5fpa1jWJLYlnw7WoGTD-95" value="Dátum" style="ellipse;whiteSpace=wrap;html=1;align=center;" vertex="1" parent="1">
          <mxGeometry x="870" y="60" width="100" height="40" as="geometry" />
        </mxCell>
        <mxCell id="P5fpa1jWJLYlnw7WoGTD-96" value="" style="endArrow=none;html=1;rounded=0;exitX=1;exitY=0;exitDx=0;exitDy=0;entryX=0;entryY=1;entryDx=0;entryDy=0;" edge="1" parent="1" source="P5fpa1jWJLYlnw7WoGTD-2" target="P5fpa1jWJLYlnw7WoGTD-95">
          <mxGeometry relative="1" as="geometry">
            <mxPoint x="1090" y="260" as="sourcePoint" />
            <mxPoint x="1250" y="260" as="targetPoint" />
          </mxGeometry>
        </mxCell>
        <mxCell id="P5fpa1jWJLYlnw7WoGTD-97" value="Vezeti" style="shape=rhombus;perimeter=rhombusPerimeter;whiteSpace=wrap;html=1;align=center;" vertex="1" parent="1">
          <mxGeometry x="-230" y="50" width="120" height="50" as="geometry" />
        </mxCell>
        <mxCell id="P5fpa1jWJLYlnw7WoGTD-98" value="" style="endArrow=none;html=1;rounded=0;exitX=1;exitY=0.5;exitDx=0;exitDy=0;entryX=0;entryY=0.25;entryDx=0;entryDy=0;" edge="1" parent="1" source="P5fpa1jWJLYlnw7WoGTD-97" target="P5fpa1jWJLYlnw7WoGTD-1">
          <mxGeometry relative="1" as="geometry">
            <mxPoint x="10" y="150" as="sourcePoint" />
            <mxPoint x="170" y="150" as="targetPoint" />
          </mxGeometry>
        </mxCell>
        <mxCell id="P5fpa1jWJLYlnw7WoGTD-99" value="" style="endArrow=classic;html=1;rounded=0;entryX=0.5;entryY=1;entryDx=0;entryDy=0;exitX=0;exitY=0.5;exitDx=0;exitDy=0;" edge="1" parent="1" source="P5fpa1jWJLYlnw7WoGTD-97" target="P5fpa1jWJLYlnw7WoGTD-10">
          <mxGeometry width="50" height="50" relative="1" as="geometry">
            <mxPoint x="-350" y="190" as="sourcePoint" />
            <mxPoint x="-300" y="140" as="targetPoint" />
          </mxGeometry>
        </mxCell>
        <mxCell id="P5fpa1jWJLYlnw7WoGTD-100" value="" style="endArrow=classic;html=1;rounded=0;exitX=1;exitY=0;exitDx=0;exitDy=0;entryX=0;entryY=0.75;entryDx=0;entryDy=0;" edge="1" parent="1" source="P5fpa1jWJLYlnw7WoGTD-97" target="P5fpa1jWJLYlnw7WoGTD-6">
          <mxGeometry width="50" height="50" relative="1" as="geometry">
            <mxPoint x="-90" y="60" as="sourcePoint" />
            <mxPoint x="-40" y="10" as="targetPoint" />
          </mxGeometry>
        </mxCell>
        <mxCell id="P5fpa1jWJLYlnw7WoGTD-101" value="" style="endArrow=classic;html=1;rounded=0;exitX=1;exitY=0;exitDx=0;exitDy=0;entryX=0;entryY=1;entryDx=0;entryDy=0;" edge="1" parent="1" source="P5fpa1jWJLYlnw7WoGTD-55" target="P5fpa1jWJLYlnw7WoGTD-7">
          <mxGeometry width="50" height="50" relative="1" as="geometry">
            <mxPoint x="470" y="100" as="sourcePoint" />
            <mxPoint x="520" y="50" as="targetPoint" />
          </mxGeometry>
        </mxCell>
        <mxCell id="P5fpa1jWJLYlnw7WoGTD-102" value="" style="endArrow=classic;html=1;rounded=0;exitX=0;exitY=0;exitDx=0;exitDy=0;entryX=1;entryY=1;entryDx=0;entryDy=0;" edge="1" parent="1" source="P5fpa1jWJLYlnw7WoGTD-46" target="P5fpa1jWJLYlnw7WoGTD-7">
          <mxGeometry width="50" height="50" relative="1" as="geometry">
            <mxPoint x="640" y="120" as="sourcePoint" />
            <mxPoint x="690" y="70" as="targetPoint" />
          </mxGeometry>
        </mxCell>
        <mxCell id="P5fpa1jWJLYlnw7WoGTD-103" value="" style="endArrow=classic;html=1;rounded=0;exitX=1;exitY=0.5;exitDx=0;exitDy=0;entryX=0;entryY=0.5;entryDx=0;entryDy=0;" edge="1" parent="1" source="P5fpa1jWJLYlnw7WoGTD-54" target="P5fpa1jWJLYlnw7WoGTD-2">
          <mxGeometry width="50" height="50" relative="1" as="geometry">
            <mxPoint x="670" y="150" as="sourcePoint" />
            <mxPoint x="720" y="100" as="targetPoint" />
          </mxGeometry>
        </mxCell>
        <mxCell id="P5fpa1jWJLYlnw7WoGTD-104" value="" style="endArrow=classic;html=1;rounded=0;exitX=1;exitY=1;exitDx=0;exitDy=0;entryX=0.25;entryY=0;entryDx=0;entryDy=0;" edge="1" parent="1" source="P5fpa1jWJLYlnw7WoGTD-90" target="P5fpa1jWJLYlnw7WoGTD-1">
          <mxGeometry width="50" height="50" relative="1" as="geometry">
            <mxPoint x="300" y="140" as="sourcePoint" />
            <mxPoint x="350" y="90" as="targetPoint" />
          </mxGeometry>
        </mxCell>
        <mxCell id="P5fpa1jWJLYlnw7WoGTD-105" value="" style="endArrow=classic;html=1;rounded=0;exitX=0;exitY=0.5;exitDx=0;exitDy=0;entryX=1;entryY=0;entryDx=0;entryDy=0;" edge="1" parent="1" source="P5fpa1jWJLYlnw7WoGTD-87" target="P5fpa1jWJLYlnw7WoGTD-78">
          <mxGeometry width="50" height="50" relative="1" as="geometry">
            <mxPoint x="-290" y="190" as="sourcePoint" />
            <mxPoint x="-240" y="140" as="targetPoint" />
          </mxGeometry>
        </mxCell>
      </root>
    </mxGraphModel>
  </diagram>
</mxfile>
